<svg width="14" height="15" viewBox="0 0 14 15" fill="none" xmlns="http://www.w3.org/2000/svg">
<path d="M8.13044 0.743999C9.31444 0.743999 10.3438 0.967999 11.2184 1.416C12.0931 1.864 12.7651 2.49333 13.2344 3.304C13.7038 4.104 13.9384 5.032 13.9384 6.088C13.9384 6.93067 13.7998 7.74133 13.5224 8.52C13.2451 9.288 12.8398 9.912 12.3064 10.392C11.7838 10.872 11.1704 11.112 10.4664 11.112C9.9331 11.112 9.52244 10.9787 9.23444 10.712C8.94644 10.4453 8.7811 10.0827 8.73844 9.624C8.40777 10.0827 7.98644 10.4453 7.47444 10.712C6.9731 10.9787 6.43977 11.112 5.87444 11.112C5.06377 11.112 4.42377 10.8667 3.95444 10.376C3.49577 9.87467 3.26644 9.20267 3.26644 8.36C3.26644 7.56 3.43177 6.81333 3.76244 6.12C4.10377 5.42667 4.5731 4.872 5.17044 4.456C5.76777 4.02933 6.4451 3.816 7.20244 3.816C8.21577 3.816 8.89844 4.2 9.25044 4.968L9.42644 3.976H10.6904L9.89044 8.6C9.85844 8.80267 9.84244 8.98933 9.84244 9.16C9.84244 9.8 10.1251 10.12 10.6904 10.12C11.1171 10.12 11.4851 9.91733 11.7944 9.512C12.1144 9.10667 12.3544 8.6 12.5144 7.992C12.6744 7.37333 12.7544 6.76533 12.7544 6.168C12.7544 4.77067 12.3331 3.688 11.4904 2.92C10.6584 2.152 9.47977 1.768 7.95444 1.768C6.6851 1.768 5.53844 2.07733 4.51444 2.696C3.5011 3.304 2.70644 4.14133 2.13044 5.208C1.55444 6.27467 1.26644 7.45333 1.26644 8.744C1.25577 10.152 1.6771 11.2347 2.53044 11.992C3.38377 12.76 4.56777 13.144 6.08244 13.144C7.0851 13.144 7.97044 12.9627 8.73844 12.6L8.93044 13.592C7.9811 13.9867 6.93577 14.184 5.79444 14.184C4.6531 14.184 3.6451 13.9653 2.77044 13.528C1.90644 13.1013 1.23444 12.4827 0.754438 11.672C0.285104 10.872 0.0504376 9.93867 0.0504376 8.872C0.0504376 7.368 0.397104 5.99733 1.09044 4.76C1.78377 3.512 2.74377 2.53067 3.97044 1.816C5.20777 1.10133 6.59444 0.743999 8.13044 0.743999ZM6.30644 9.976C6.78644 9.976 7.2291 9.83733 7.63444 9.56C8.03977 9.272 8.35977 8.888 8.59444 8.408C8.8291 7.91733 8.94644 7.384 8.94644 6.808C8.94644 6.25333 8.79177 5.80533 8.48244 5.464C8.18377 5.112 7.7571 4.936 7.20244 4.936C6.69044 4.936 6.2371 5.09067 5.84244 5.4C5.45844 5.69867 5.15977 6.09867 4.94644 6.6C4.7331 7.09067 4.62644 7.60267 4.62644 8.136C4.62644 8.70133 4.77044 9.14933 5.05844 9.48C5.34644 9.81067 5.76244 9.976 6.30644 9.976Z" fill="black"/>
</svg>
