<?xml version="1.0" encoding="utf-8"?>
<!-- Generator: Adobe Illustrator 25.4.1, SVG Export Plug-In . SVG Version: 6.00 Build 0)  -->
<svg version="1.1" id="Layer_1" xmlns="http://www.w3.org/2000/svg" xmlns:xlink="http://www.w3.org/1999/xlink" x="0px" y="0px"
	 viewBox="0 0 40.4 41.2" style="enable-background:new 0 0 40.4 41.2;" xml:space="preserve">
<style type="text/css">
	.st0{fill-rule:evenodd;clip-rule:evenodd;fill:#0E3A6C;}
</style>
<path class="st0" d="M26.4,31.5l9.8-10.2c0.1-0.1,0.2-0.3,0.3-0.4c0.1-0.3,0.1-0.7,0-1c-0.1-0.2-0.1-0.3-0.3-0.4L26.4,9.3
	c-0.5-0.5-1.3-0.5-1.7,0c-0.5,0.5-0.5,1.3,0,1.8l7.7,8H4.7c-0.7,0-1.2,0.6-1.2,1.3c0,0.7,0.5,1.3,1.2,1.3h27.7l-7.7,8
	c-0.2,0.2-0.4,0.6-0.4,0.9c0,0.3,0.1,0.7,0.4,0.9C25.1,32,25.9,32,26.4,31.5z"/>
</svg>
