<svg width="249" height="249" viewBox="0 0 249 249" fill="none" xmlns="http://www.w3.org/2000/svg">
<path fill-rule="evenodd" clip-rule="evenodd" d="M249 124.5C249 55.7405 193.259 0 124.5 0C55.7405 0 0 55.7405 0 124.5C0 193.259 55.7405 249 124.5 249C146.607 249 167.367 243.238 185.363 233.135L181.296 226.242C174.405 230.096 167.083 233.272 159.419 235.676C160.791 234.562 162.14 233.384 163.463 232.145C160.26 232.203 157.073 231.242 154.435 229.424C146.146 236.162 137.165 240.057 128 240.849V190.061L146.175 190.237L145.622 182.231L128 182.06V128H148.207C152.938 124.151 159.922 123.171 165.858 127.006L167.396 128H193.969C193.868 133.623 193.526 139.137 192.962 144.519L200.455 149.36C201.329 142.432 201.845 135.294 201.97 128H240.948C240.513 142.757 237.333 156.825 231.902 169.712C234.66 171.727 236.437 174.369 237.323 177.213C244.815 161.205 249 143.342 249 124.5ZM226.118 196.448C224.799 198.308 223.429 200.131 222.011 201.914L219.41 197.504L225.269 196.601C225.557 196.557 225.84 196.506 226.118 196.448ZM120 189.983V240.75C103.965 238.967 88.5553 227.688 76.4909 208.307C72.9492 202.617 69.7532 196.305 66.9745 189.47L120 189.983ZM120 181.983V128H55.0312C55.379 147.454 58.615 165.615 63.9864 181.44L120 181.983ZM193.948 120H128V70H185.819C190.619 84.9661 193.532 101.914 193.948 120ZM120 120V70H63.181C58.3807 84.9661 55.4679 101.914 55.0517 120H120ZM183.002 62H128V8.15118C144.393 9.56805 160.194 20.9094 172.509 40.6929C176.474 47.0615 180.005 54.2101 183.002 62ZM120 62V8.24999C103.965 10.0331 88.5553 21.312 76.4909 40.6929C72.5265 47.0615 68.9953 54.2101 65.9976 62H120ZM55.5359 181.359C50.3915 165.288 47.3597 147.186 47.03 128H8.05157C8.61836 147.209 13.8353 165.252 22.6154 181.04L55.5359 181.359ZM27.528 189.088C42.1331 210.972 63.9494 227.634 89.5807 235.676C76.6819 225.2 65.8536 209.102 58.3446 189.386L27.528 189.088ZM201.95 120C201.555 102.116 198.811 85.1918 194.2 70H227.492C235.456 85.0176 240.23 101.985 240.915 120H201.95ZM191.542 62H222.833C208.24 39.0882 185.86 21.6201 159.419 13.3238C172.835 24.2193 184.01 41.197 191.542 62ZM26.1668 62H57.4584C64.9896 41.197 76.1653 24.2193 89.5806 13.3238C63.1404 21.6201 40.7598 39.0882 26.1668 62ZM54.8005 70H21.5076C13.5444 85.0176 8.76952 101.985 8.08531 120H47.0497C47.4452 102.116 50.1889 85.1918 54.8005 70ZM163.882 214.433L158.853 141.529L220.232 181.189L203.84 183.715C198.947 184.469 196.362 189.926 198.878 194.19L218.375 227.238L205.086 235.078L185.589 202.03C183.073 197.766 177.047 197.389 174.02 201.307L163.882 214.433ZM161.517 133.726C156.675 130.597 150.338 134.335 150.735 140.087L156.082 217.608C156.525 224.029 164.67 226.499 168.605 221.405L179.449 207.366L198.704 240.004C200.668 243.334 204.96 244.441 208.29 242.476L223.301 233.621C226.631 231.656 227.737 227.365 225.773 224.035L206.518 191.397L224.051 188.695C230.412 187.714 232.19 179.39 226.783 175.897L161.517 133.726Z" fill="black"/>
</svg>
