<svg width="253" height="253" viewBox="0 0 253 253" fill="none" xmlns="http://www.w3.org/2000/svg">
<path fill-rule="evenodd" clip-rule="evenodd" d="M122.28 18C108.473 18 97.2804 29.1929 97.2804 43C97.2804 56.8071 108.473 68 122.28 68C136.088 68 147.28 56.8071 147.28 43C147.28 29.1929 136.088 18 122.28 18ZM89.2804 43C89.2804 24.7746 104.055 10 122.28 10C140.506 10 155.28 24.7746 155.28 43C155.28 61.2254 140.506 76 122.28 76C104.055 76 89.2804 61.2254 89.2804 43ZM87.5714 75.1042C82.2723 68.9412 72.6807 69.0976 67.5855 75.4302L20.8721 133.488C16.4259 139.014 17.2296 147.084 22.6782 151.625L50.9773 175.207C54.8118 178.403 55.3135 184.108 52.0956 187.924L29.7501 214.419C26.057 218.798 26.7195 225.364 31.213 228.917C35.3035 232.151 41.1797 231.758 44.8024 228.007L85.4032 185.969C87.8998 183.384 87.984 179.312 85.5965 176.626L64.7916 153.221C60.8955 148.838 60.7381 142.281 64.4196 137.715L79.72 118.743C84.0908 113.323 92.3799 112.663 97.2215 118.193C97.5708 118.592 97.9172 118.989 98.2616 119.384C102.369 124.092 106.179 128.458 110.999 131.672C118.189 136.465 128.936 142.367 139.598 148.049C144.956 150.905 151.636 148.975 154.672 143.687C157.924 138.021 155.705 130.787 149.835 127.92L130.225 118.343C123.997 115.301 118.454 111.022 113.935 105.766L87.5714 75.1042ZM61.3526 70.4152C69.5833 60.1856 85.0774 59.9329 93.6374 69.8885L120.001 100.55C123.811 104.982 128.485 108.59 133.736 111.155L153.346 120.731C163.375 125.629 167.167 137.99 161.61 147.67C156.436 156.682 145.029 160.009 135.835 155.109C125.218 149.45 114.129 143.373 106.562 138.328C100.804 134.49 96.3041 129.321 92.3239 124.749C91.9456 124.314 91.5719 123.885 91.2023 123.463C89.8867 121.96 87.4445 121.908 85.9473 123.765L70.6469 142.738C69.4197 144.259 69.4722 146.445 70.7709 147.906L91.5758 171.311C96.1733 176.484 96.5349 184.031 92.7513 189.571L101.97 218.051C104.927 227.187 100.032 237.011 90.9573 240.152C81.5127 243.422 71.2411 238.199 68.3185 228.641L65.1907 218.413L50.5568 233.565C44.0774 240.273 33.5673 240.977 26.2511 235.192C18.2142 228.838 17.0292 217.093 23.6347 209.261L45.9801 182.766C46.3377 182.342 46.2819 181.708 45.8559 181.353L17.5567 157.77C8.75508 150.436 7.45688 137.4 14.6391 128.473L61.3526 70.4152ZM71.5447 211.834L75.9688 226.302C77.5659 231.525 83.1792 234.379 88.3405 232.593C93.2997 230.876 95.9746 225.507 94.3584 220.515L86.5273 196.321L71.5447 211.834Z" fill="black"/>
<path fill-rule="evenodd" clip-rule="evenodd" d="M194.245 80.8781C192.121 79.773 189.621 79.2205 186.745 79.2205C183.015 79.2205 179.648 80.1019 176.643 81.8647C173.664 83.6276 171.332 86.0482 169.648 89.1266C167.964 92.1787 167.123 95.5597 167.123 99.2695C167.123 101.901 167.692 104.203 168.832 106.176C169.998 108.176 171.63 109.702 173.728 110.754C175.852 111.833 178.3 112.372 181.072 112.372C183.844 112.372 186.383 111.886 188.688 110.912L188.222 108.465C186.357 109.36 184.207 109.807 181.772 109.807C178.093 109.807 175.218 108.86 173.145 106.966C171.073 105.098 170.05 102.427 170.076 98.9538C170.076 95.7701 170.775 92.8628 172.174 90.2317C173.573 87.6005 175.503 85.5351 177.964 84.0354C180.451 82.5093 183.235 81.7463 186.318 81.7463C190.022 81.7463 192.885 82.6935 194.905 84.5879C196.952 86.4823 197.975 89.1529 197.975 92.5997C197.975 94.0731 197.781 95.5728 197.392 97.0989C197.004 98.5986 196.421 99.8484 195.644 100.848C194.892 101.848 193.999 102.348 192.962 102.348C191.59 102.348 190.903 101.559 190.903 99.9799C190.903 99.5589 190.942 99.0985 191.02 98.5986L192.962 87.1927H189.893L189.465 89.6397C188.611 87.7453 186.953 86.7981 184.492 86.7981C182.652 86.7981 181.008 87.3243 179.557 88.3767C178.106 89.4029 176.966 90.771 176.137 92.4813C175.334 94.1915 174.933 96.0333 174.933 98.0066C174.933 100.085 175.49 101.743 176.604 102.979C177.744 104.19 179.298 104.795 181.267 104.795C182.64 104.795 183.935 104.466 185.152 103.808C186.396 103.15 187.419 102.256 188.222 101.124C188.326 102.256 188.727 103.15 189.427 103.808C190.126 104.466 191.123 104.795 192.418 104.795C194.128 104.795 195.618 104.203 196.887 103.019C198.182 101.835 199.167 100.296 199.84 98.4013C200.514 96.4805 200.85 94.4809 200.85 92.4023C200.85 89.7975 200.281 87.5085 199.141 85.5351C198.001 83.5355 196.369 81.9831 194.245 80.8781ZM185.541 100.967C184.556 101.651 183.481 101.993 182.316 101.993C180.995 101.993 179.984 101.585 179.285 100.769C178.585 99.9536 178.236 98.8485 178.236 97.4541C178.236 96.1385 178.495 94.8756 179.013 93.6653C179.531 92.4286 180.256 91.442 181.189 90.7053C182.147 89.9422 183.248 89.5607 184.492 89.5607C185.839 89.5607 186.875 89.9949 187.6 90.8631C188.352 91.7051 188.727 92.8101 188.727 94.1783C188.727 95.5991 188.442 96.9147 187.872 98.125C187.302 99.309 186.525 100.256 185.541 100.967Z" fill="black"/>
<path fill-rule="evenodd" clip-rule="evenodd" d="M124 143.715V164.385C124 169.908 128.477 174.385 134 174.385H233C238.523 174.385 243 169.908 243 164.385V94.3852L225 84.0995V78.3853C225 75.0715 222.314 72.3853 219 72.3853H204.5L201.857 70.875C190.482 64.375 176.518 64.375 165.143 70.875L162.5 72.3853H149C145.686 72.3853 143 75.0715 143 78.3853V83.5281L124 94.3852V109.245C125.282 110.269 126.617 111.225 128 112.109V98.7244L167.393 119.249L158.591 129.995C159.388 131.281 159.987 132.676 160.375 134.129L171.017 121.137L172.47 121.894L176.898 124.299C177.54 124.648 178.202 124.943 178.879 125.184C181.552 126.3 184.532 126.407 187.264 125.504C188.25 125.235 189.215 124.856 190.138 124.366L196.076 121.219L236.415 169.319C235.446 169.991 234.269 170.385 233 170.385H134C133.001 170.385 132.059 170.141 131.23 169.709L144.638 153.34C143.159 153.248 141.677 152.938 140.24 152.396L128.484 166.749C128.172 166.024 128 165.225 128 164.385V145.939C126.647 145.194 125.311 144.452 124 143.715ZM195.82 72.3853H171.18C179.081 69.2049 187.919 69.2049 195.82 72.3853ZM130.282 95.4028L143 88.1351V102.029L130.282 95.4028ZM238.798 165.935L199.69 119.303L210.373 113.639L239 98.7244V164.385C239 164.921 238.93 165.441 238.798 165.935ZM236.718 95.4028L225 101.508V88.7065L236.718 95.4028ZM219 76.3853H149C147.895 76.3853 147 77.2807 147 78.3853V102.316C147 103.05 147.401 103.724 148.045 104.074L178.807 120.784C181.753 122.384 185.303 122.402 188.265 120.832L219.937 104.042C220.591 103.695 221 103.015 221 102.275V78.3853C221 77.2807 220.105 76.3853 219 76.3853Z" fill="black"/>
</svg>
