<svg width="800" height="800" viewBox="0 0 800 800" fill="none" xmlns="http://www.w3.org/2000/svg">
<path d="M364.32 39.6496C383.388 18.4604 416.612 18.4604 435.68 39.6496L445.435 50.49C459.352 65.9551 481.647 70.6942 500.651 62.2266L513.972 56.2911C540.01 44.6894 570.362 58.203 579.163 85.316L583.666 99.1869C590.089 118.976 608.529 132.373 629.334 132.367L643.918 132.363C672.423 132.355 694.655 157.045 691.667 185.394L690.139 199.897C687.958 220.588 699.355 240.327 718.363 248.784L731.688 254.712C757.732 266.299 767.999 297.897 753.739 322.579L746.444 335.207C736.036 353.222 738.419 375.89 752.345 391.347L762.106 402.182C781.186 423.361 777.713 456.403 754.647 473.152L742.846 481.72C726.011 493.944 718.967 515.622 725.402 535.407L729.913 549.275C738.729 576.383 722.117 605.156 694.232 611.075L679.967 614.103C659.615 618.423 644.364 635.362 642.195 656.053L640.675 670.557C637.703 698.908 610.824 718.436 582.943 712.502L568.679 709.466C548.33 705.134 527.507 714.405 517.11 732.426L509.821 745.058C495.576 769.748 463.077 776.656 440.021 759.894L428.225 751.319C411.397 739.085 388.603 739.085 371.775 751.319L359.979 759.894C336.923 776.656 304.424 769.748 290.179 745.058L282.89 732.426C272.493 714.405 251.67 705.134 231.321 709.466L217.057 712.502C189.176 718.436 162.297 698.908 159.326 670.557L157.805 656.053C155.636 635.362 140.385 618.423 120.033 614.103L105.767 611.075C77.8831 605.156 61.2709 576.383 70.0874 549.275L74.5979 535.407C81.0326 515.622 73.989 493.944 57.154 481.72L45.3532 473.152C22.2869 456.403 18.814 423.361 37.8941 402.182L47.6554 391.347C61.5811 375.89 63.9636 353.222 53.556 335.207L46.2606 322.579C32.0008 297.897 42.2677 266.299 68.3122 254.712L81.6365 248.784C100.645 240.327 112.042 220.588 109.861 199.897L108.333 185.394C105.345 157.045 127.577 132.355 156.082 132.363L170.666 132.367C191.471 132.373 209.911 118.975 216.334 99.1869L220.837 85.3159C229.638 58.203 259.99 44.6894 286.028 56.2911L299.349 62.2266C318.353 70.6942 340.648 65.9551 354.565 50.49L364.32 39.6496Z" fill="black"/>
<path d="M133 479V320H180.25L233 418V320H275.5V479H227L175.5 384.75V479H133Z" fill="white"/>
<path d="M300.48 479V320H414.98V352.5H342.98V382H405.23V414.5H342.98V446.5H416.48V479H300.48Z" fill="white"/>
<path d="M471.408 479L433.908 320H480.158L499.658 423.75L500.158 429H501.658L502.158 423.75L531.158 322.5H566.158L594.908 423.75L595.908 429H596.908L597.408 423.75L616.158 320H662.408L624.908 479H573.658L549.158 390.25L548.408 384.75L547.908 390.25L522.658 479H471.408Z" fill="white"/>
</svg>
