<svg width="800" height="800" viewBox="0 0 800 800" fill="none" xmlns="http://www.w3.org/2000/svg">
<path d="M800 400C800 620.914 620.914 800 400 800C179.086 800 0 620.914 0 400C0 179.086 179.086 0 400 0C620.914 0 800 179.086 800 400Z" fill="white"/>
<path fill-rule="evenodd" clip-rule="evenodd" d="M400 776C607.659 776 776 607.659 776 400C776 192.341 607.659 24 400 24C192.341 24 24 192.341 24 400C24 607.659 192.341 776 400 776ZM400 800C620.914 800 800 620.914 800 400C800 179.086 620.914 0 400 0C179.086 0 0 179.086 0 400C0 620.914 179.086 800 400 800Z" fill="black"/>
<path fill-rule="evenodd" clip-rule="evenodd" d="M402.16 150.001C400.291 150.015 398.422 150.028 396.553 150.03C361.885 150.027 328.085 162.33 301.713 185.016L299.785 186.697C295.914 189.919 292.456 193.299 289.13 197.089L287.374 199.118C271.756 216.796 260.707 236.583 254.128 259.299L253.56 261.314C250.193 273.136 249.024 284.983 249.075 297.24L249.088 299.354C249.122 310.288 249.3 320.919 251.85 331.608L252.328 333.557C252.404 333.882 252.479 334.206 252.554 334.531C254.332 342.201 256.116 349.894 259.387 357.086L260.36 359.129C265.008 369.581 270.231 379.598 276.881 388.929L278.612 391.278C298.125 417.756 327.22 437.542 359.169 445.591L361.115 446.076C375.909 450.027 390.357 450.117 405.568 449.957L407.687 449.929C428.064 449.684 448.191 443.679 466.264 434.408L467.71 433.655C480.596 426.992 493.433 418.62 503.54 408.12L504.946 406.621C526.459 384.099 541.632 357.182 546.937 326.206L547.292 324.059C548.661 316.378 549.052 308.853 549.073 301.071L549.072 299.08C549.073 280.318 545.982 263.558 539.396 245.909C524.457 207.558 495.065 178.452 457.9 161.562L455.299 160.394C450.356 158.158 445.538 156.314 440.246 155.097C438.928 154.805 437.611 154.51 436.298 154.198C435.216 153.939 434.133 153.683 433.049 153.429L431.388 153.042C421.707 150.719 412.081 149.967 402.16 150.001ZM409.336 463.101C407.519 463.107 405.702 463.113 403.884 463.116C386.831 463.142 369.798 463.199 352.786 464.519C351.24 464.644 349.695 464.769 348.15 464.889C312.657 467.637 277.424 474.089 245.717 491.119L244.362 491.853C232.811 498.037 221.837 504.858 211.721 513.21C210.887 513.903 210.052 514.595 209.215 515.284C201.866 521.071 195.098 527.36 188.942 534.413C187.63 535.963 186.306 537.475 184.918 538.958C167.946 557.07 154.779 578.9 144.408 601.349C143.8 602.682 143.192 604.015 142.583 605.347C142.46 605.609 142.337 605.87 142.214 606.13C139.619 611.635 137.176 616.816 137 623.058C137.189 625.942 137.312 627.809 137.894 629.52C138.964 632.665 141.585 635.282 149.024 642.707L150.546 644.201C159.667 653.223 168.931 662.067 178.781 670.294L179.927 671.247C214.119 699.827 253.055 722.759 295.58 736.434L297.814 737.148C307.255 740.228 316.759 742.692 326.482 744.686L328.11 745.019C344.002 748.333 359.836 749.897 376.072 749.824C378.803 749.801 381.533 749.778 384.263 749.771C385.965 749.768 387.671 749.772 389.381 749.775C399.904 749.793 410.542 749.812 420.959 748.503C422.677 748.275 424.398 748.06 426.12 747.869L428.396 747.63C430.114 747.446 431.832 747.262 433.55 747.078L434.328 746.997C438.66 746.547 442.974 746.099 447.245 745.219C449.123 744.818 450.99 744.447 452.886 744.14C464.237 742.425 475.358 740.157 486.5 737.396L488.604 736.873C498.377 734.479 507.872 731.696 517.319 728.227C518.349 727.848 519.379 727.472 520.41 727.1C559.242 713.136 595.455 693.071 626.585 665.847L628.779 663.925C635.448 658.31 641.832 652.169 647.542 645.574C648.67 644.227 649.806 642.906 651.027 641.642C651.474 641.186 651.926 640.732 652.378 640.277C655.618 637.022 658.899 633.726 660.814 629.511C663.324 621.475 661.634 614.546 658.179 607.141L657.336 605.347C641.512 571.019 621.5 539.599 591.897 515.513L590.704 514.552C587.992 512.362 585.248 510.224 582.444 508.153L581.185 507.229C557.39 489.759 528.491 477.313 499.499 471.624L497.803 471.305C496.661 471.082 495.519 470.86 494.376 470.638C493.047 470.39 491.718 470.139 490.389 469.886C482.459 468.277 474.607 467.132 466.554 466.353C465.369 466.238 464.184 466.121 463 466.002C459.984 465.696 456.969 465.4 453.951 465.12C452.03 464.943 450.11 464.76 448.192 464.559C435.236 463.196 422.348 463.064 409.336 463.101Z" fill="black"/>
</svg>
