<?xml version="1.0" encoding="UTF-8" standalone="no"?>
<svg
   xmlns:dc="http://purl.org/dc/elements/1.1/"
   xmlns:cc="http://creativecommons.org/ns#"
   xmlns:rdf="http://www.w3.org/1999/02/22-rdf-syntax-ns#"
   xmlns:svg="http://www.w3.org/2000/svg"
   xmlns="http://www.w3.org/2000/svg"
   xmlns:sodipodi="http://sodipodi.sourceforge.net/DTD/sodipodi-0.dtd"
   xmlns:inkscape="http://www.inkscape.org/namespaces/inkscape"
   version="1.1"
   id="svg2"
   xml:space="preserve"
   width="680.30664"
   height="680.32001"
   viewBox="0 0 680.30664 680.32001"
   sodipodi:docname="Interpreter-Symbol-with-text (1).eps"><metadata
     id="metadata8"><rdf:RDF><cc:Work
         rdf:about=""><dc:format>image/svg+xml</dc:format><dc:type
           rdf:resource="http://purl.org/dc/dcmitype/StillImage" /></cc:Work></rdf:RDF></metadata><defs
     id="defs6" /><sodipodi:namedview
     pagecolor="#ffffff"
     bordercolor="#666666"
     borderopacity="1"
     objecttolerance="10"
     gridtolerance="10"
     guidetolerance="10"
     inkscape:pageopacity="0"
     inkscape:pageshadow="2"
     inkscape:window-width="640"
     inkscape:window-height="480"
     id="namedview4" /><g
     id="g10"
     inkscape:groupmode="layer"
     inkscape:label="ink_ext_XXXXXX"
     transform="matrix(1.3333333,0,0,-1.3333333,0,680.32)"><g
       id="g12"
       transform="scale(0.1)"><path
         d="M 0,0 H 5102.27 V 5102.41 H 0 Z"
         style="fill:#2151a8;fill-opacity:1;fill-rule:nonzero;stroke:none"
         id="path14" /><path
         d="m 1532.99,3475.3 c 0,267.54 -216.88,499.81 -484.4,499.81 -267.539,0 -484.414,-216.87 -484.414,-484.41 0,-267.53 216.875,-484.41 484.414,-484.41 188.66,0 352.13,107.85 432.11,265.27 l -295.1,206.68 347.39,-2.94"
         style="fill:#ffffff;fill-opacity:1;fill-rule:nonzero;stroke:none"
         id="path16" /><path
         d="m 3579.44,3475.3 c 0,267.54 216.88,499.81 484.43,499.81 267.54,0 484.39,-216.87 484.39,-484.41 0,-267.53 -216.85,-484.41 -484.39,-484.41 -188.67,0 -352.15,107.85 -432.13,265.27 l 295.12,206.68 -347.42,-2.94"
         style="fill:#ffffff;fill-opacity:1;fill-rule:nonzero;stroke:none"
         id="path18" /><path
         d="m 1561.25,2821.89 c -106.15,153.68 -298.83,254.72 -502.71,254.72 -204.345,0 -384.462,-101.5 -490.517,-255.77 V 1700.8 h 993.027 l 0.2,1121.09"
         style="fill:#ffffff;fill-opacity:1;fill-rule:nonzero;stroke:none"
         id="path20" /><path
         d="m 3052.69,2821.89 c -106.28,153.68 -299.16,254.72 -503.31,254.72 -204.58,0 -384.91,-101.5 -491.1,-255.77 V 1700.8 h 994.23 l 0.18,1121.09"
         style="fill:#ffffff;fill-opacity:1;fill-rule:nonzero;stroke:none"
         id="path22" /><path
         d="m 4543.9,2821.89 c -106.25,153.68 -299.14,254.72 -503.24,254.72 -204.56,0 -384.85,-101.5 -491.05,-255.77 V 1700.8 h 994.09 l 0.2,1121.09"
         style="fill:#ffffff;fill-opacity:1;fill-rule:nonzero;stroke:none"
         id="path24" /><path
         d="m 2555.45,3270.34 280.26,203.77 H 2275.2 Z m 475.76,220.36 c 0,-262.67 -212.96,-475.6 -475.61,-475.6 -262.68,0 -475.62,212.93 -475.62,475.6 0,262.67 212.94,475.61 475.62,475.61 262.65,0 475.61,-212.94 475.61,-475.61"
         style="fill:#ffffff;fill-opacity:1;fill-rule:nonzero;stroke:none"
         id="path26" /><path
         d="m 2050.58,3431.28 -97.26,-68.9 h -360.9 v 142 h 360.9 l 97.26,-73.1"
         style="fill:#ffffff;fill-opacity:1;fill-rule:nonzero;stroke:none"
         id="path28" /><path
         d="m 1513.96,3249.27 97.27,68.9 h 360.9 v -141.99 h -360.9 l -97.27,73.09"
         style="fill:#ffffff;fill-opacity:1;fill-rule:nonzero;stroke:none"
         id="path30" /><path
         d="m 3557.76,3431.28 -97.25,-68.9 h -360.88 v 142 h 360.88 l 97.25,-73.1"
         style="fill:#ffffff;fill-opacity:1;fill-rule:nonzero;stroke:none"
         id="path32" /><path
         d="m 3021.16,3249.27 97.27,68.9 h 360.89 v -141.99 h -360.89 l -97.27,73.09"
         style="fill:#ffffff;fill-opacity:1;fill-rule:nonzero;stroke:none"
         id="path34" /><path
         d="m 287.141,851.191 h 128.992 v 691.52 H 287.141 Z"
         style="fill:#ffffff;fill-opacity:1;fill-rule:nonzero;stroke:none"
         id="path36" /><path
         d="m 642.633,1363.35 v -87.68 c 37.578,67.75 91.41,101.64 161.492,101.64 113.762,0 169.625,-65.77 169.625,-198.29 V 851.191 H 858.977 v 326.829 c 0,73.73 -31.493,111.6 -88.368,111.6 -68.05,0 -120.867,-56.79 -120.867,-145.48 V 851.191 H 534.965 v 512.159 h 107.668"
         style="fill:#ffffff;fill-opacity:1;fill-rule:nonzero;stroke:none"
         id="path38" /><path
         d="m 1217.51,1363.35 h 116.81 v -78.72 h -116.81 v -248.1 c 0,-74.729 11.17,-107.608 73.13,-107.608 18.29,0 37.58,1.988 57.9,6.969 v -88.68 c -28.44,-5.981 -55.87,-9.961 -83.29,-9.961 -124.93,0 -164.55,57.781 -164.55,191.31 v 256.07 h -87.35 v 78.72 h 90.4 l 4.06,132.52 109.7,8.98 v -141.5"
         style="fill:#ffffff;fill-opacity:1;fill-rule:nonzero;stroke:none"
         id="path40" /><path
         d="m 1742.62,1162.07 c -3.05,87.69 -47.74,133.53 -124.93,133.53 -68.06,0 -115.79,-47.83 -122.9,-133.53 z m -249.87,-74.72 c 0,-104.631 51.81,-163.42 134.08,-163.42 56.88,0 102.58,30.89 121.88,86.69 l 112.75,-11.96 c -37.58,-104.621 -121.89,-161.41 -240.73,-161.41 -152.35,0 -252.91,106.609 -252.91,269.03 0,162.41 101.57,271.03 249.87,271.03 151.34,0 248.84,-102.64 248.84,-269.04 0,-5.98 0,-11.96 0,-17.94 h -373.78 c 0,-0.99 0,-1.99 0,-2.98"
         style="fill:#ffffff;fill-opacity:1;fill-rule:nonzero;stroke:none"
         id="path42" /><path
         d="m 2223.03,1265.71 c -11.17,0.99 -20.31,0.99 -25.39,0.99 -84.3,0 -139.15,-60.78 -139.15,-161.42 V 851.191 h -116.81 v 512.159 h 106.66 v -110.6 c 26.4,83.7 74.14,124.56 147.27,124.56 8.13,0 17.27,0 27.42,-1.01 v -110.59"
         style="fill:#ffffff;fill-opacity:1;fill-rule:nonzero;stroke:none"
         id="path44" /><path
         d="m 2490.15,931.91 c 66.02,0 105.64,61.77 105.64,174.37 0,111.59 -39.62,171.38 -103.61,171.38 -57.89,0 -111.72,-57.79 -111.72,-126.54 v -85.7 c 0,-82.701 49.76,-133.51 109.69,-133.51 z m -225.48,431.44 h 108.68 v -97.64 c 31.48,72.73 84.3,109.6 156.42,109.6 114.77,0 190.94,-98.65 190.94,-270.03 0,-164.409 -83.28,-267.03 -204.15,-267.03 -60.94,0 -106.65,28.891 -136.1,86.672 v -251.09 h -115.79 v 689.518"
         style="fill:#ffffff;fill-opacity:1;fill-rule:nonzero;stroke:none"
         id="path46" /><path
         d="m 3084.34,1265.71 c -11.18,0.99 -20.32,0.99 -25.4,0.99 -84.3,0 -139.15,-60.78 -139.15,-161.42 V 851.191 h -116.81 v 512.159 h 106.65 v -110.6 c 26.41,83.7 74.15,124.56 147.27,124.56 8.14,0 17.28,0 27.44,-1.01 v -110.59"
         style="fill:#ffffff;fill-opacity:1;fill-rule:nonzero;stroke:none"
         id="path48" /><path
         d="m 3469.27,1162.07 c -3.05,87.69 -47.74,133.53 -124.93,133.53 -68.05,0 -115.8,-47.83 -122.9,-133.53 z m -249.87,-74.72 c 0,-104.631 51.81,-163.42 134.08,-163.42 56.88,0 102.58,30.89 121.88,86.69 l 112.75,-11.96 c -37.58,-104.621 -121.89,-161.41 -240.73,-161.41 -152.35,0 -252.91,106.609 -252.91,269.03 0,162.41 101.57,271.03 249.87,271.03 151.33,0 248.84,-102.64 248.84,-269.04 0,-5.98 0,-11.96 0,-17.94 H 3219.4 c 0,-0.99 0,-1.99 0,-2.98"
         style="fill:#ffffff;fill-opacity:1;fill-rule:nonzero;stroke:none"
         id="path50" /><path
         d="m 3809.53,1363.35 h 116.8 v -78.72 h -116.8 v -248.1 c 0,-74.729 11.17,-107.608 73.13,-107.608 18.28,0 37.57,1.988 57.9,6.969 v -88.68 c -28.45,-5.981 -55.87,-9.961 -83.29,-9.961 -124.94,0 -164.55,57.781 -164.55,191.31 v 256.07 h -87.35 v 78.72 h 90.4 l 4.06,132.52 109.7,8.98 v -141.5"
         style="fill:#ffffff;fill-opacity:1;fill-rule:nonzero;stroke:none"
         id="path52" /><path
         d="m 4334.63,1162.07 c -3.05,87.69 -47.74,133.53 -124.93,133.53 -68.05,0 -115.79,-47.83 -122.9,-133.53 z m -249.86,-74.72 c 0,-104.631 51.8,-163.42 134.07,-163.42 56.88,0 102.59,30.89 121.88,86.69 l 112.75,-11.96 c -37.58,-104.621 -121.89,-161.41 -240.73,-161.41 -152.35,0 -252.91,106.609 -252.91,269.03 0,162.41 101.58,271.03 249.87,271.03 151.34,0 248.84,-102.64 248.84,-269.04 0,-5.98 0,-11.96 0,-17.94 h -373.77 c 0,-0.99 0,-1.99 0,-2.98"
         style="fill:#ffffff;fill-opacity:1;fill-rule:nonzero;stroke:none"
         id="path54" /><path
         d="m 4815.05,1265.71 c -11.17,0.99 -20.32,0.99 -25.4,0.99 -84.3,0 -139.15,-60.78 -139.15,-161.42 V 851.191 h -116.81 v 512.159 h 106.65 v -110.6 c 26.42,83.7 74.15,124.56 147.28,124.56 8.12,0 17.27,0 27.43,-1.01 v -110.59"
         style="fill:#ffffff;fill-opacity:1;fill-rule:nonzero;stroke:none"
         id="path56" /></g></g></svg>
