<svg id="Layer_1" data-name="Layer 1" xmlns="http://www.w3.org/2000/svg" viewBox="0 0 145 50"><defs><style>.cls-1{fill:#ab1d40;}.cls-2{fill:#fff;}.cls-3{fill:#00263a;}</style></defs><path class="cls-1" d="M31.83.17C20.09,1.56,8.73,11,4.21,22.35L3.6,17.1H.34L2.17,32.9h0c.23,11,8.59,18.33,20.49,16.93,13.61-1.61,26.7-14,29.24-27.74S45.45-1.43,31.83.17Z"/><path class="cls-2" d="M21.92,17.1H33.19l-.72,3.09h-8l-.74,3.23h7l-.72,3H23l-.78,3.34h8.1l-.72,3.09H18.26Z"/><path class="cls-2" d="M33.81,26.29a9.41,9.41,0,0,1,2.52-6.62,8.78,8.78,0,0,1,6.43-2.84,6.73,6.73,0,0,1,6.12,3.36l-2.69,2A4.27,4.27,0,0,0,42.43,20a4.78,4.78,0,0,0-3.49,1.63,6.4,6.4,0,0,0-1.68,4.49A3.68,3.68,0,0,0,41,30a5,5,0,0,0,3.5-1.56l2.21,2.35a7.6,7.6,0,0,1-5.65,2.41C37,33.17,33.92,30.51,33.81,26.29Z"/><polygon class="cls-2" points="7.68 24.2 6.86 17.1 3.6 17.1 4.94 28.68 7.68 24.2"/><polygon class="cls-2" points="9.86 32.9 19.51 17.1 15.76 17.1 6.11 32.9 9.86 32.9"/><path class="cls-3" d="M58.7,4.18h2l2.58,8.28,2.59-8.28h2l-3.7,11.17H62.4Z"/><path class="cls-3" d="M68.58,5.55a1.3,1.3,0,0,1,2.59,0,1.3,1.3,0,0,1-2.59,0ZM69,7.91h1.73v7.44H69Z"/><path class="cls-3" d="M72.25,11.63A3.57,3.57,0,0,1,76,7.72c2.08,0,3.37,1.14,3.53,2.84H77.74A1.59,1.59,0,0,0,76,9.27c-1.23,0-2,.85-2,2.36S74.72,14,76,14c1,0,1.6-.43,1.79-1.21h1.74C79.32,14.44,78,15.54,76,15.54A3.56,3.56,0,0,1,72.25,11.63Z"/><path class="cls-3" d="M85.32,13.82v1.53a8,8,0,0,1-1.29.1c-.85,0-2.41-.11-2.41-2.62V9.37H80.35V7.91h1.27V5.66h1.74V7.91h1.7V9.37h-1.7v3.06c0,1.29.39,1.45,1.08,1.45A7.16,7.16,0,0,0,85.32,13.82Z"/><path class="cls-3" d="M86.11,11.63a3.93,3.93,0,0,1,7.85,0,3.93,3.93,0,0,1-7.85,0Zm6.11,0a2.19,2.19,0,1,0-4.37,0,2.19,2.19,0,1,0,4.37,0Z"/><path class="cls-3" d="M95.49,7.91h1.74V9.35a2,2,0,0,1,2-1.53,2.73,2.73,0,0,1,.68.06v1.6a3.88,3.88,0,0,0-.68,0c-1.23,0-2,.93-2,2.62v3.29H95.49Z"/><path class="cls-3" d="M100.68,5.55a1.3,1.3,0,0,1,2.59,0,1.3,1.3,0,0,1-2.59,0Zm.43,2.36h1.73v7.44h-1.73Z"/><path class="cls-3" d="M104.35,11.63a3.63,3.63,0,0,1,3.7-3.91,2.73,2.73,0,0,1,2.35,1.2v-1h1.72v7.44H110.4v-1a2.92,2.92,0,0,1-2.4,1.19C105.61,15.54,104.35,13.82,104.35,11.63Zm6.11,0a2.19,2.19,0,1,0-4.37,0,2.19,2.19,0,1,0,4.37,0Z"/><path class="cls-3" d="M114.13,7.91h1.74V9a2.64,2.64,0,0,1,2.43-1.23c1.78,0,2.71,1,2.71,3v4.68h-1.74V11.47c0-1.58-.42-2.26-1.63-2.26s-1.77.75-1.77,2.06v4.08h-1.74Z"/><path class="cls-3" d="M59.9,19.41h6.45v1.65H61.73v3.16h4.62v1.64H61.73v3.08h4.62v1.65H59.9Z"/><path class="cls-3" d="M68.36,19.41H70.1V30.59H68.36Z"/><path class="cls-3" d="M78.9,27.44H73.38a1.81,1.81,0,0,0,2.07,1.82,1.64,1.64,0,0,0,1.66-.84h1.76c-.23,1.39-1.63,2.36-3.42,2.36a3.58,3.58,0,0,1-3.8-3.91A3.59,3.59,0,0,1,75.39,23,3.36,3.36,0,0,1,79,26.48C79,26.82,78.93,27,78.9,27.44Zm-1.66-1.32a1.68,1.68,0,0,0-1.89-1.79,1.77,1.77,0,0,0-2,1.79Z"/><path class="cls-3" d="M80.05,26.87A3.56,3.56,0,0,1,83.75,23c2.08,0,3.37,1.13,3.53,2.84H85.54a1.57,1.57,0,0,0-1.79-1.29c-1.23,0-2,.84-2,2.36s.73,2.36,2,2.36c1.06,0,1.6-.43,1.79-1.21h1.74c-.16,1.66-1.45,2.76-3.53,2.76A3.57,3.57,0,0,1,80.05,26.87Z"/><path class="cls-3" d="M93.12,29.06v1.53a8.23,8.23,0,0,1-1.29.09c-.85,0-2.41-.11-2.41-2.61V24.6H88.16V23.15h1.26V20.9h1.74v2.25h1.71V24.6H91.16v3.07c0,1.29.4,1.45,1.09,1.45A6.85,6.85,0,0,0,93.12,29.06Z"/><path class="cls-3" d="M93.91,26.87a3.93,3.93,0,0,1,7.85,0,3.93,3.93,0,0,1-7.85,0Zm6.11,0a2.19,2.19,0,1,0-4.37,0,2.19,2.19,0,1,0,4.37,0Z"/><path class="cls-3" d="M103.29,23.15H105v1.44a2,2,0,0,1,2-1.54,2.77,2.77,0,0,1,.69.07v1.59a5.31,5.31,0,0,0-.69,0c-1.23,0-2,.93-2,2.62v3.29h-1.74Z"/><path class="cls-3" d="M108.41,26.87A3.63,3.63,0,0,1,112.12,23a2.68,2.68,0,0,1,2.34,1.2v-1h1.73v7.44h-1.73v-1a2.9,2.9,0,0,1-2.39,1.2C109.67,30.78,108.41,29.06,108.41,26.87Zm6.12,0a2.2,2.2,0,1,0-4.38,0,2.2,2.2,0,1,0,4.38,0Z"/><path class="cls-3" d="M118.19,19.41h1.74V30.59h-1.74Z"/><path class="cls-3" d="M59.26,40.24a5.48,5.48,0,0,1,5.81-5.86c3.08,0,5.08,1.74,5.41,4.1h-2A3.15,3.15,0,0,0,65.09,36c-2.48,0-3.9,1.66-3.9,4.22s1.42,4.21,3.9,4.21A3.15,3.15,0,0,0,68.47,42h2c-.33,2.36-2.33,4.11-5.41,4.11A5.49,5.49,0,0,1,59.26,40.24Z"/><path class="cls-3" d="M71.53,42.1A3.93,3.93,0,1,1,75.45,46,3.73,3.73,0,0,1,71.53,42.1Zm6.11,0a2.19,2.19,0,1,0-4.37,0,2.19,2.19,0,1,0,4.37,0Z"/><path class="cls-3" d="M80.91,38.38h1.74v1a2.55,2.55,0,0,1,4.42.1,2.5,2.5,0,0,1,2.28-1.33c2.24,0,2.69,1.54,2.69,2.92v4.71H90.3V41.45c0-1.23-.48-1.77-1.39-1.77s-1.57.43-1.57,2.2v3.94H85.6V41.43c0-1.23-.45-1.75-1.35-1.75s-1.6.43-1.6,2.2v3.94H80.91Z"/><path class="cls-3" d="M94,38.38h1.74v1a2.55,2.55,0,0,1,4.42.1,2.5,2.5,0,0,1,2.28-1.33c2.24,0,2.69,1.54,2.69,2.92v4.71H103.4V41.45c0-1.23-.48-1.77-1.39-1.77s-1.57.43-1.57,2.2v3.94H98.7V41.43c0-1.23-.44-1.75-1.35-1.75s-1.6.43-1.6,2.2v3.94H94Z"/><path class="cls-3" d="M106.65,36a1.29,1.29,0,1,1,1.29,1.3A1.25,1.25,0,0,1,106.65,36Zm.43,2.36h1.72v7.44h-1.72Z"/><path class="cls-3" d="M110.27,43.54H112c0,.64.63,1.09,1.52,1.09.66,0,1.07-.35,1.07-.88A.73.73,0,0,0,114,43l-1.91-.53a2,2,0,0,1-1.62-2.06c0-1.21,1.14-2.19,2.86-2.19,1.95,0,2.94,1,2.94,2.32H114.6c0-.62-.48-1-1.29-1-.61,0-1.07.3-1.07.77a.79.79,0,0,0,.64.79l1.77.51a2.16,2.16,0,0,1,1.72,2c0,1.42-1,2.43-2.94,2.43S110.27,44.9,110.27,43.54Z"/><path class="cls-3" d="M117.51,43.54h1.74c0,.64.62,1.09,1.51,1.09.66,0,1.07-.35,1.07-.88a.72.72,0,0,0-.55-.78l-1.92-.53a2,2,0,0,1-1.61-2.06c0-1.21,1.13-2.19,2.85-2.19,2,0,2.94,1,2.94,2.32h-1.71c0-.62-.47-1-1.29-1-.61,0-1.07.3-1.07.77a.8.8,0,0,0,.64.79l1.77.51a2.16,2.16,0,0,1,1.73,2c0,1.42-1,2.43-2.94,2.43S117.51,44.9,117.51,43.54Z"/><path class="cls-3" d="M124.77,36a1.29,1.29,0,1,1,1.29,1.3A1.25,1.25,0,0,1,124.77,36Zm.43,2.36h1.72v7.44H125.2Z"/><path class="cls-3" d="M128.39,42.1A3.93,3.93,0,1,1,132.32,46,3.74,3.74,0,0,1,128.39,42.1Zm6.12,0a2.2,2.2,0,1,0-4.38,0,2.2,2.2,0,1,0,4.38,0Z"/><path class="cls-3" d="M137.78,38.38h1.74v1a2.63,2.63,0,0,1,2.42-1.23c1.79,0,2.72,1,2.72,3v4.67h-1.74V41.94c0-1.58-.42-2.26-1.63-2.26s-1.77.75-1.77,2.06v4.08h-1.74Z"/></svg>