<?xml version="1.0" encoding="utf-8"?>
<!-- Generator: Adobe Illustrator 26.0.2, SVG Export Plug-In . SVG Version: 6.00 Build 0)  -->
<svg version="1.1" id="Layer_1" xmlns="http://www.w3.org/2000/svg" xmlns:xlink="http://www.w3.org/1999/xlink" x="0px" y="0px"
	 viewBox="0 0 150 20.3" style="enable-background:new 0 0 150 20.3;" xml:space="preserve">
<style type="text/css">
	.st0{fill:#002639;}
	.st1{fill:#AB0A3D;}
	.st2{fill:#FFFFFF;}
</style>
<g>
	<g>
		<g>
			<path class="st0" d="M25.2,6.9h1.1l1.5,4.7l1.5-4.7h1.1l-2.1,6.4h-1L25.2,6.9z"/>
			<path class="st0" d="M30.8,7.7c0-0.4,0.3-0.7,0.7-0.7c0.4,0,0.7,0.3,0.7,0.7S32,8.5,31.6,8.5C31.1,8.5,30.8,8.1,30.8,7.7z
				 M31.1,9.1h1v4.3h-1V9.1z"/>
			<path class="st0" d="M32.9,11.2C32.9,9.9,33.7,9,35,9c1.2,0,1.9,0.6,2,1.6h-1c-0.1-0.5-0.4-0.7-1-0.7c-0.7,0-1.1,0.5-1.1,1.4
				c0,0.9,0.4,1.4,1.1,1.4c0.6,0,0.9-0.2,1-0.7h1c-0.1,1-0.8,1.6-2,1.6C33.7,13.5,32.9,12.5,32.9,11.2z"/>
			<path class="st0" d="M40.4,12.5v0.9c-0.2,0-0.4,0.1-0.7,0.1c-0.5,0-1.4-0.1-1.4-1.5v-2h-0.7V9.1h0.7V7.8h1v1.3h1v0.8h-1v1.8
				c0,0.7,0.2,0.8,0.6,0.8C40,12.5,40.3,12.5,40.4,12.5z"/>
			<path class="st0" d="M40.8,11.2c0-1.3,0.8-2.2,2.3-2.2s2.3,1,2.3,2.2c0,1.3-0.8,2.2-2.3,2.2S40.8,12.5,40.8,11.2z M44.3,11.2
				c0-0.8-0.4-1.4-1.3-1.4s-1.3,0.6-1.3,1.4c0,0.8,0.4,1.4,1.3,1.4S44.3,12,44.3,11.2z"/>
			<path class="st0" d="M46.2,9.1h1v0.8C47.3,9.3,47.8,9,48.3,9c0.2,0,0.3,0,0.4,0V10c-0.2,0-0.2,0-0.4,0c-0.7,0-1.1,0.5-1.1,1.5
				v1.9h-1V9.1z"/>
			<path class="st0" d="M49.1,7.7c0-0.4,0.3-0.7,0.7-0.7c0.4,0,0.7,0.3,0.7,0.7s-0.3,0.7-0.7,0.7C49.4,8.5,49.1,8.1,49.1,7.7z
				 M49.4,9.1h1v4.3h-1V9.1z"/>
			<path class="st0" d="M51.2,11.2C51.2,10,52,9,53.3,9c0.6,0,1.1,0.3,1.3,0.7V9.1h1v4.3h-1v-0.6c-0.3,0.4-0.9,0.7-1.4,0.7
				C51.9,13.5,51.2,12.5,51.2,11.2z M54.7,11.2c0-0.7-0.4-1.4-1.3-1.4c-0.8,0-1.2,0.6-1.2,1.4c0,0.8,0.5,1.4,1.2,1.4
				C54.3,12.6,54.7,11.9,54.7,11.2z"/>
			<path class="st0" d="M56.8,9.1h1v0.6C58,9.2,58.5,9,59.2,9c1,0,1.6,0.6,1.6,1.7v2.7h-1v-2.2c0-0.9-0.2-1.3-0.9-1.3
				c-0.6,0-1,0.4-1,1.2v2.3h-1V9.1z"/>
			<path class="st0" d="M64.2,6.9h3.7v0.9h-2.6v1.8h2.6v0.9h-2.6v1.8h2.6v0.9h-3.7V6.9z"/>
			<path class="st0" d="M69,6.9h1v6.4h-1V6.9z"/>
			<path class="st0" d="M75,11.5h-3.2c0,0.7,0.5,1,1.2,1c0.5,0,0.8-0.2,1-0.5h1c-0.1,0.8-0.9,1.4-2,1.4c-1.3,0-2.2-0.9-2.2-2.2
				C70.9,9.8,71.7,9,73,9c1.2,0,2,0.8,2,2C75.1,11.2,75.1,11.3,75,11.5z M74.1,10.8c0-0.7-0.4-1-1.1-1c-0.7,0-1.1,0.4-1.1,1H74.1z"
				/>
			<path class="st0" d="M75.7,11.2c0-1.3,0.8-2.2,2.1-2.2c1.2,0,1.9,0.6,2,1.6h-1c-0.1-0.5-0.4-0.7-1-0.7c-0.7,0-1.1,0.5-1.1,1.4
				c0,0.9,0.4,1.4,1.1,1.4c0.6,0,0.9-0.2,1-0.7h1c-0.1,1-0.8,1.6-2,1.6C76.5,13.5,75.7,12.5,75.7,11.2z"/>
			<path class="st0" d="M83.1,12.5v0.9c-0.2,0-0.4,0.1-0.7,0.1c-0.5,0-1.4-0.1-1.4-1.5v-2h-0.7V9.1H81V7.8h1v1.3h1v0.8h-1v1.8
				c0,0.7,0.2,0.8,0.6,0.8C82.8,12.5,83,12.5,83.1,12.5z"/>
			<path class="st0" d="M83.6,11.2c0-1.3,0.8-2.2,2.3-2.2c1.4,0,2.3,1,2.3,2.2c0,1.3-0.8,2.2-2.3,2.2C84.4,13.5,83.6,12.5,83.6,11.2
				z M87.1,11.2c0-0.8-0.4-1.4-1.3-1.4s-1.3,0.6-1.3,1.4c0,0.8,0.4,1.4,1.3,1.4S87.1,12,87.1,11.2z"/>
			<path class="st0" d="M88.9,9.1h1v0.8C90.1,9.3,90.6,9,91.1,9c0.2,0,0.3,0,0.4,0V10c-0.2,0-0.2,0-0.4,0c-0.7,0-1.1,0.5-1.1,1.5
				v1.9h-1V9.1z"/>
			<path class="st0" d="M91.8,11.2C91.8,10,92.6,9,94,9c0.6,0,1.1,0.3,1.3,0.7V9.1h1v4.3h-1v-0.6c-0.3,0.4-0.9,0.7-1.4,0.7
				C92.6,13.5,91.8,12.5,91.8,11.2z M95.3,11.2c0-0.7-0.4-1.4-1.3-1.4c-0.8,0-1.2,0.6-1.2,1.4c0,0.8,0.5,1.4,1.2,1.4
				C94.9,12.6,95.3,11.9,95.3,11.2z"/>
			<path class="st0" d="M97.4,6.9h1v6.4h-1V6.9z"/>
			<path class="st0" d="M101.3,10.1c0-2,1.2-3.4,3.3-3.4c1.8,0,2.9,1,3.1,2.4h-1.2c-0.2-0.9-0.9-1.4-1.9-1.4c-1.4,0-2.2,1-2.2,2.4
				s0.8,2.4,2.2,2.4c1.1,0,1.7-0.5,1.9-1.4h1.2c-0.2,1.4-1.3,2.4-3.1,2.4C102.5,13.5,101.3,12.1,101.3,10.1z"/>
			<path class="st0" d="M108.3,11.2c0-1.3,0.8-2.2,2.3-2.2s2.3,1,2.3,2.2c0,1.3-0.8,2.2-2.3,2.2S108.3,12.5,108.3,11.2z M111.8,11.2
				c0-0.8-0.4-1.4-1.3-1.4s-1.3,0.6-1.3,1.4c0,0.8,0.4,1.4,1.3,1.4S111.8,12,111.8,11.2z"/>
			<path class="st0" d="M113.6,9.1h1v0.6c0.2-0.4,0.6-0.7,1.2-0.7c0.8,0,1.2,0.3,1.3,0.8c0.2-0.4,0.7-0.8,1.3-0.8
				c1.3,0,1.5,0.9,1.5,1.7v2.7h-1v-2.5c0-0.7-0.3-1-0.8-1c-0.5,0-0.9,0.2-0.9,1.3v2.3h-1v-2.5c0-0.7-0.3-1-0.8-1
				c-0.5,0-0.9,0.2-0.9,1.3v2.3h-1V9.1z"/>
			<path class="st0" d="M121.1,9.1h1v0.6c0.2-0.4,0.6-0.7,1.2-0.7c0.8,0,1.2,0.3,1.3,0.8c0.2-0.4,0.7-0.8,1.3-0.8
				c1.3,0,1.5,0.9,1.5,1.7v2.7h-1v-2.5c0-0.7-0.3-1-0.8-1c-0.5,0-0.9,0.2-0.9,1.3v2.3h-1v-2.5c0-0.7-0.3-1-0.8-1
				c-0.5,0-0.9,0.2-0.9,1.3v2.3h-1V9.1z"/>
			<path class="st0" d="M128.3,7.7c0-0.4,0.3-0.7,0.7-0.7c0.4,0,0.7,0.3,0.7,0.7s-0.3,0.7-0.7,0.7C128.6,8.5,128.3,8.1,128.3,7.7z
				 M128.6,9.1h1v4.3h-1V9.1z"/>
			<path class="st0" d="M130.4,12h1c0,0.4,0.4,0.6,0.9,0.6c0.4,0,0.6-0.2,0.6-0.5c0-0.2-0.1-0.4-0.3-0.4l-1.1-0.3
				c-0.6-0.2-0.9-0.6-0.9-1.2c0-0.7,0.6-1.3,1.6-1.3c1.1,0,1.7,0.6,1.7,1.3h-1c0-0.4-0.3-0.6-0.7-0.6c-0.3,0-0.6,0.2-0.6,0.4
				c0,0.2,0.1,0.4,0.4,0.5l1,0.3c0.6,0.2,1,0.6,1,1.1c0,0.8-0.6,1.4-1.7,1.4C131.1,13.5,130.4,12.8,130.4,12z"/>
			<path class="st0" d="M134.5,12h1c0,0.4,0.4,0.6,0.9,0.6c0.4,0,0.6-0.2,0.6-0.5c0-0.2-0.1-0.4-0.3-0.4l-1.1-0.3
				c-0.6-0.2-0.9-0.6-0.9-1.2c0-0.7,0.6-1.3,1.6-1.3c1.1,0,1.7,0.6,1.7,1.3h-1c0-0.4-0.3-0.6-0.7-0.6c-0.3,0-0.6,0.2-0.6,0.4
				c0,0.2,0.1,0.4,0.4,0.5l1,0.3c0.6,0.2,1,0.6,1,1.1c0,0.8-0.6,1.4-1.7,1.4C135.2,13.5,134.5,12.8,134.5,12z"/>
			<path class="st0" d="M138.6,7.7c0-0.4,0.3-0.7,0.7-0.7c0.4,0,0.7,0.3,0.7,0.7s-0.3,0.7-0.7,0.7C138.9,8.5,138.6,8.1,138.6,7.7z
				 M138.9,9.1h1v4.3h-1V9.1z"/>
			<path class="st0" d="M140.7,11.2c0-1.3,0.8-2.2,2.3-2.2c1.4,0,2.3,1,2.3,2.2c0,1.3-0.8,2.2-2.3,2.2
				C141.5,13.5,140.7,12.5,140.7,11.2z M144.2,11.2c0-0.8-0.4-1.4-1.3-1.4s-1.3,0.6-1.3,1.4c0,0.8,0.4,1.4,1.3,1.4
				S144.2,12,144.2,11.2z"/>
			<path class="st0" d="M146.1,9.1h1v0.6c0.3-0.5,0.8-0.7,1.4-0.7c1,0,1.6,0.6,1.6,1.7v2.7h-1v-2.2c0-0.9-0.2-1.3-0.9-1.3
				c-0.6,0-1,0.4-1,1.2v2.3h-1V9.1z"/>
		</g>
	</g>
	<g>
		<path class="st1" d="M12.8,0.1C8,0.6,3.4,4.5,1.6,9.1L1.3,6.9H0l0.7,6.4h0c0.1,4.5,3.5,7.4,8.3,6.9c5.5-0.7,10.8-5.7,11.9-11.2
			C21.9,3.4,18.3-0.6,12.8,0.1z"/>
		<path class="st2" d="M8.8,6.9h4.6L13,8.2H9.8L9.5,9.5h2.8L12,10.7H9.2l-0.3,1.4h3.3l-0.3,1.3H7.3L8.8,6.9z"/>
		<path class="st2" d="M13.6,10.7c0-1,0.4-2,1-2.7c0.7-0.7,1.6-1.2,2.6-1.2c1.2,0,2,0.5,2.5,1.4L18.6,9c-0.4-0.5-0.8-0.9-1.5-0.9
			c-0.5,0-1,0.2-1.4,0.7C15.2,9.2,15,9.9,15,10.6c0,0.9,0.7,1.5,1.5,1.5c0.6,0,1-0.2,1.4-0.6l0.9,1c-0.6,0.6-1.3,1-2.3,1
			C14.9,13.5,13.6,12.4,13.6,10.7z"/>
		<g>
			<polygon class="st2" points="3,9.8 2.6,6.9 1.3,6.9 1.9,11.6 			"/>
		</g>
		<polygon class="st2" points="3.9,13.3 7.8,6.9 6.3,6.9 2.3,13.3 		"/>
	</g>
</g>
</svg>
