<svg id="Layer_1" data-name="Layer 1" xmlns="http://www.w3.org/2000/svg" xmlns:xlink="http://www.w3.org/1999/xlink" viewBox="0 0 27.74 38"><defs><style>.cls-1{fill:#fff;}.cls-1,.cls-3{fill-rule:evenodd;}.cls-2{mask:url(#mask);}.cls-3{fill:#0e3a6c;}</style><mask id="mask" x="0" y="0" width="27.74" height="38" maskUnits="userSpaceOnUse"><g id="mask15_0:561" data-name="mask15 0:561"><path class="cls-1" d="M0,0H27.74V38H0Z"/></g></mask></defs><g class="cls-2"><path class="cls-3" d="M25.61,36.1H2.13a.23.23,0,0,1-.23-.23V2.13a.23.23,0,0,1,.23-.23H18.05v6a2,2,0,0,0,2,2h5.83v26A.23.23,0,0,1,25.61,36.1ZM25,8H20A.06.06,0,0,1,20,7.92V2.63Zm2.37-.24L20.85.83A2.12,2.12,0,0,0,19.17,0h-17A2.13,2.13,0,0,0,0,2.13V35.87A2.13,2.13,0,0,0,2.13,38H25.61a2.13,2.13,0,0,0,2.13-2.13V9A2.14,2.14,0,0,0,27.35,7.74Z"/></g><path class="cls-3" d="M9.77,19.9a1.2,1.2,0,0,0,.33-.9,1.18,1.18,0,0,0-.33-.89,1.34,1.34,0,0,0-.94-.32H8.35v2.42h.48A1.33,1.33,0,0,0,9.77,19.9Zm1.1.21a1.86,1.86,0,0,1-.77.75,2.42,2.42,0,0,1-1.18.27H7.32V16.89h1.6a2.61,2.61,0,0,1,1.19.26,1.89,1.89,0,0,1,.76.75,2.4,2.4,0,0,1,0,2.21Z"/><path class="cls-3" d="M12.93,18.11a1.29,1.29,0,0,0-.29.89,1.32,1.32,0,0,0,.29.89,1,1,0,0,0,.81.32,1,1,0,0,0,.79-.32,1.28,1.28,0,0,0,.3-.89,1.31,1.31,0,0,0-.29-.89,1.15,1.15,0,0,0-1.61,0Zm1.89-1a2.09,2.09,0,0,1,.78.78A2.3,2.3,0,0,1,15.88,19a2.22,2.22,0,0,1-.29,1.12,2.13,2.13,0,0,1-.77.78,2.32,2.32,0,0,1-2.17,0,2.13,2.13,0,0,1-.77-.78A2.22,2.22,0,0,1,11.59,19a2.2,2.2,0,0,1,.29-1.12,2.13,2.13,0,0,1,.77-.78,2.23,2.23,0,0,1,1.09-.27A2.19,2.19,0,0,1,14.82,17.1Z"/><path class="cls-3" d="M19.73,17.27a1.92,1.92,0,0,1,.69,1.16H19.33a1,1,0,0,0-1-.63.88.88,0,0,0-.72.33,1.52,1.52,0,0,0,0,1.76.88.88,0,0,0,.72.32,1,1,0,0,0,.59-.16,1,1,0,0,0,.37-.46h1.09a1.93,1.93,0,0,1-.69,1.15,2,2,0,0,1-1.34.43,2.11,2.11,0,0,1-1.08-.27,1.87,1.87,0,0,1-.73-.77A2.4,2.4,0,0,1,16.33,19a2.37,2.37,0,0,1,.25-1.12,1.81,1.81,0,0,1,.73-.77,2.11,2.11,0,0,1,1.08-.27A2.08,2.08,0,0,1,19.73,17.27Z"/></svg>