<svg id="Layer_1" data-name="Layer 1" xmlns="http://www.w3.org/2000/svg" xmlns:xlink="http://www.w3.org/1999/xlink" viewBox="0 0 27.74 38"><defs><style>.cls-1{fill:#fff;}.cls-1,.cls-2{fill-rule:evenodd;}.cls-2{fill:#0e3a6c;}.cls-3{mask:url(#mask);}</style><mask id="mask" x="0" y="0" width="27.74" height="38" maskUnits="userSpaceOnUse"><g id="mask7_0:561" data-name="mask7 0:561"><path class="cls-1" d="M0,0H27.74V38H0Z"/></g></mask></defs><path class="cls-2" d="M4.47,21.12h1V16.88h-1Z"/><path class="cls-2" d="M11,16.91v4.21H10V18.49L9,21.12H8.15l-.92-2.64v2.64h-1V16.91H7.46L8.6,19.85l1.12-2.94Z"/><path class="cls-2" d="M14,19.57,13.52,18,13,19.57Zm.27.78H12.72l-.27.77H11.37l1.56-4.21h1.18l1.55,4.21H14.57Z"/><path class="cls-2" d="M19.36,17.23A1.65,1.65,0,0,1,20,18.29H18.92a.91.91,0,0,0-.33-.37,1.14,1.14,0,0,0-1.32.19A1.32,1.32,0,0,0,17,19a1.29,1.29,0,0,0,.31.93,1.13,1.13,0,0,0,.88.32,1,1,0,0,0,.64-.2,1.08,1.08,0,0,0,.39-.57H17.9v-.74h2.16v1a2.18,2.18,0,0,1-.39.69A1.92,1.92,0,0,1,19,21a2.2,2.2,0,0,1-.94.2,2.24,2.24,0,0,1-1.12-.27,1.89,1.89,0,0,1-.74-.77,2.46,2.46,0,0,1,0-2.24,1.87,1.87,0,0,1,.73-.77,2.24,2.24,0,0,1,1.12-.27A2.1,2.1,0,0,1,19.36,17.23Z"/><path class="cls-2" d="M21.66,17.7v.89h1.43v.77H21.66v.94h1.61v.82H20.63V16.88h2.64v.82Z"/><g class="cls-3"><path class="cls-2" d="M25.61,36.1H2.13a.23.23,0,0,1-.23-.23V2.13a.23.23,0,0,1,.23-.23H18.05v6a2,2,0,0,0,2,2h5.83v26A.23.23,0,0,1,25.61,36.1ZM25,8H20A.06.06,0,0,1,20,7.92V2.63Zm2.37-.24L20.85.83A2.12,2.12,0,0,0,19.17,0h-17A2.13,2.13,0,0,0,0,2.13V35.87A2.13,2.13,0,0,0,2.13,38H25.61a2.13,2.13,0,0,0,2.13-2.13V9A2.14,2.14,0,0,0,27.35,7.74Z"/></g></svg>