<svg id="Layer_1" data-name="Layer 1" xmlns="http://www.w3.org/2000/svg" viewBox="0 0 27.32 23.11"><defs><style>.cls-1{fill:#0e3a6c;fill-rule:evenodd;}</style></defs><path class="cls-1" d="M24.52,5.76c0,.25,0,.5,0,.75,0,7.71-5.64,16.6-15.95,16.6A15.38,15.38,0,0,1,0,20.49a9.94,9.94,0,0,0,1.34.08,11,11,0,0,0,7-2.49A5.67,5.67,0,0,1,3.06,14a5.37,5.37,0,0,0,1.06.11,5.07,5.07,0,0,0,1.47-.21A5.77,5.77,0,0,1,1.1,8.2V8.13a5.36,5.36,0,0,0,2.54.73A5.88,5.88,0,0,1,1.15,4,6,6,0,0,1,1.9,1.07,15.72,15.72,0,0,0,13.46,7.16a5.74,5.74,0,0,1-.15-1.32A5.72,5.72,0,0,1,18.91,0,5.54,5.54,0,0,1,23,1.84,11,11,0,0,0,26.57.43,5.85,5.85,0,0,1,24.1,3.65a10.94,10.94,0,0,0,3.22-.91A11.68,11.68,0,0,1,24.52,5.76Z"/></svg>