<svg id="Layer_1" data-name="Layer 1" xmlns="http://www.w3.org/2000/svg" xmlns:xlink="http://www.w3.org/1999/xlink" viewBox="0 0 22.92 19.52"><defs><style>.cls-1{fill:#fff;}.cls-1,.cls-3{fill-rule:evenodd;}.cls-2{mask:url(#mask);}.cls-3{fill:#0e3a6c;}</style><mask id="mask" x="0" y="0" width="12.57" height="19.52" maskUnits="userSpaceOnUse"><g id="mask0_0:561" data-name="mask0 0:561"><path class="cls-1" d="M0,0H12.57V19.52H0Z"/></g></mask></defs><g class="cls-2"><path class="cls-3" d="M11.25.19,4.87,5.49l-3.56.34A1.47,1.47,0,0,0,0,7.3v4.92a1.49,1.49,0,0,0,1.31,1.47L4.87,14l6.38,5.31a.81.81,0,0,0,1.32-.64V.83A.81.81,0,0,0,11.25.19Z"/></g><path class="cls-3" d="M17.41,6.69a1.13,1.13,0,0,0-1.72-.28l-.08.06a1.1,1.1,0,0,0-.25,1.36,3.93,3.93,0,0,1,.49,1.89,4,4,0,0,1-.49,1.89A1.11,1.11,0,0,0,15.61,13l.08,0a1.11,1.11,0,0,0,1.72-.28,6.21,6.21,0,0,0,.8-3.05A6.29,6.29,0,0,0,17.41,6.69Z"/><path class="cls-3" d="M21.11,3.94a1.13,1.13,0,0,0-1.67-.2l-.05.06a1.15,1.15,0,0,0-.17,1.5,7.73,7.73,0,0,1,1.37,4.44,7.89,7.89,0,0,1-1.37,4.45,1.15,1.15,0,0,0,.17,1.5l.05.05a1.12,1.12,0,0,0,1.67-.19,10.21,10.21,0,0,0,0-11.61Z"/></svg>