<svg id="Layer_1" data-name="Layer 1" xmlns="http://www.w3.org/2000/svg" xmlns:xlink="http://www.w3.org/1999/xlink" viewBox="0 0 34.91 19.67"><defs><style>.cls-1{fill:#fff;}.cls-1,.cls-3{fill-rule:evenodd;}.cls-2{mask:url(#mask);}.cls-3{fill:#0e3a6c;}.cls-4{mask:url(#mask-2);}</style><mask id="mask" x="0" y="-0.19" width="8.75" height="19.86" maskUnits="userSpaceOnUse"><g id="mask2_0:561" data-name="mask2 0:561"><path class="cls-1" d="M0-.19H8.75V19.67H0Z"/></g></mask><mask id="mask-2" x="26.19" y="-0.19" width="8.76" height="19.86" maskUnits="userSpaceOnUse"><g id="mask3_0:561" data-name="mask3 0:561"><path class="cls-1" d="M26.19-.19H35V19.67H26.19Z"/></g></mask></defs><g class="cls-2"><path class="cls-3" d="M6,7.91A4.26,4.26,0,0,0,8,6L5.45,4.15l3.05,0A4.35,4.35,0,0,0,4.25-.19,4.23,4.23,0,0,0,2.61,7.94,5.25,5.25,0,0,0,0,9.89v9.78H8.74V9.88A5.28,5.28,0,0,0,6,7.91Z"/></g><path class="cls-3" d="M15,4.19h4.92L17.47,6ZM19,7.9a4.17,4.17,0,1,0-3.14,0,5.19,5.19,0,0,0-2.77,2v9.78h8.72V9.88A5.26,5.26,0,0,0,19,7.9Z"/><g class="cls-4"><path class="cls-3" d="M32.3,8A4.23,4.23,0,0,0,30.7-.19a4.35,4.35,0,0,0-4.25,4.36l3.05,0L26.91,6a4.23,4.23,0,0,0,2,1.94,5.19,5.19,0,0,0-2.74,2v9.78h8.72V9.88A5.31,5.31,0,0,0,32.3,8Z"/></g><path class="cls-3" d="M9,3.92V5.16h3.17l.85-.6-.85-.64Z"/><path class="cls-3" d="M8.33,6.15l.85.64h3.17V5.55H9.18Z"/><path class="cls-3" d="M26.26,4.56l-.85-.64H22.24V5.16h3.17Z"/><path class="cls-3" d="M21.55,6.15l.86.64h3.16V5.55H22.41Z"/></svg>