<svg id="Layer_1" data-name="Layer 1" xmlns="http://www.w3.org/2000/svg" xmlns:xlink="http://www.w3.org/1999/xlink" viewBox="0 0 27.74 38"><defs><style>.cls-1{fill:#fff;}.cls-1,.cls-3{fill-rule:evenodd;}.cls-2{mask:url(#mask);}.cls-3{fill:#0e3a6c;}</style><mask id="mask" x="0" y="0" width="27.74" height="38" maskUnits="userSpaceOnUse"><g id="mask29_0:561" data-name="mask29 0:561"><path class="cls-1" d="M0,0H27.74V38H0Z"/></g></mask></defs><g class="cls-2"><path class="cls-3" d="M25.61,36.1H2.13a.23.23,0,0,1-.23-.23V2.13a.23.23,0,0,1,.23-.23H18.05v6a2,2,0,0,0,2,2h5.83v26A.23.23,0,0,1,25.61,36.1ZM25,8H20A.06.06,0,0,1,20,7.92V2.63Zm2.37-.24L20.85.83A2.12,2.12,0,0,0,19.17,0h-17A2.13,2.13,0,0,0,0,2.13V35.87A2.13,2.13,0,0,0,2.13,38H25.61a2.13,2.13,0,0,0,2.13-2.13V9A2.14,2.14,0,0,0,27.35,7.74Z"/></g></svg>