<svg id="Layer_1" data-name="Layer 1" xmlns="http://www.w3.org/2000/svg" viewBox="0 0 23.05 23.05"><defs><style>.cls-1{fill:#0e3a6c;fill-rule:evenodd;}</style></defs><path class="cls-1" d="M11.53,7.68a3.85,3.85,0,1,0,3.84,3.85A3.85,3.85,0,0,0,11.53,7.68Zm0,9.77a5.92,5.92,0,1,1,5.92-5.92A5.92,5.92,0,0,1,11.53,17.45ZM17.68,6.76a1.39,1.39,0,1,1,1.38-1.39A1.38,1.38,0,0,1,17.68,6.76Zm3.23.11a6.31,6.31,0,0,0-.4-2.14,3.68,3.68,0,0,0-.86-1.33,3.59,3.59,0,0,0-1.33-.86,6.44,6.44,0,0,0-2.13-.4c-1.22-.05-1.58-.06-4.66-.06s-3.44,0-4.66.06a6.45,6.45,0,0,0-2.14.4A3.77,3.77,0,0,0,2.54,4.73a6.58,6.58,0,0,0-.4,2.14c-.05,1.21-.06,1.58-.06,4.66s0,3.44.06,4.66a6.58,6.58,0,0,0,.4,2.14,3.64,3.64,0,0,0,.86,1.32,3.68,3.68,0,0,0,1.33.86,6.2,6.2,0,0,0,2.14.4c1.22.06,1.58.07,4.66.07s3.44,0,4.66-.07a6.18,6.18,0,0,0,2.13-.4,3.59,3.59,0,0,0,1.33-.86,3.64,3.64,0,0,0,.86-1.32,6.31,6.31,0,0,0,.4-2.14C21,15,21,14.61,21,11.53S21,8.08,20.91,6.87ZM23,16.28a8.66,8.66,0,0,1-.54,2.8,5.91,5.91,0,0,1-3.37,3.37,8.66,8.66,0,0,1-2.8.54c-1.23.05-1.62.06-4.75.06S8,23,6.77,23A8.65,8.65,0,0,1,4,22.45a5.83,5.83,0,0,1-2-1.33,5.7,5.7,0,0,1-1.33-2,8.43,8.43,0,0,1-.53-2.8C0,15.05,0,14.66,0,11.53S0,8,.07,6.77A8.42,8.42,0,0,1,.6,4a5.83,5.83,0,0,1,1.33-2A5.66,5.66,0,0,1,4,.61,8.39,8.39,0,0,1,6.77.07C8,0,8.4,0,11.53,0s3.52,0,4.75.07a8.4,8.4,0,0,1,2.8.54,5.54,5.54,0,0,1,2,1.32A5.83,5.83,0,0,1,22.45,4,8.65,8.65,0,0,1,23,6.77c.05,1.23.06,1.63.06,4.76S23,15.05,23,16.28Z"/></svg>