<svg id="Layer_1" data-name="Layer 1" xmlns="http://www.w3.org/2000/svg" xmlns:xlink="http://www.w3.org/1999/xlink" viewBox="0 0 27.74 38"><defs><style>.cls-1{fill:#fff;}.cls-1,.cls-3{fill-rule:evenodd;}.cls-2{mask:url(#mask);}.cls-3{fill:#0e3a6c;}</style><mask id="mask" x="0" y="0" width="27.74" height="38" maskUnits="userSpaceOnUse"><g id="mask13_0:561" data-name="mask13 0:561"><path class="cls-1" d="M0,0H27.74V38H0Z"/></g></mask></defs><g class="cls-2"><path class="cls-3" d="M25.61,36.1H2.13a.23.23,0,0,1-.23-.23V2.13a.23.23,0,0,1,.23-.23H18.05v6a2,2,0,0,0,2,2h5.83v26A.23.23,0,0,1,25.61,36.1ZM25,8H20A.06.06,0,0,1,20,7.92V2.63Zm2.37-.25L20.85.83A2.12,2.12,0,0,0,19.17,0h-17A2.13,2.13,0,0,0,0,2.13V35.87A2.13,2.13,0,0,0,2.13,38H25.61a2.13,2.13,0,0,0,2.13-2.13V9A2.19,2.19,0,0,0,27.35,7.73Z"/></g><path class="cls-3" d="M6.11,17.7v.89H7.55v.77H6.11v.94H7.73v.82H5.09V16.88H7.73v.82Z"/><path class="cls-3" d="M10.88,21.12,10,19.8l-.77,1.32H8L9.4,18.94,8,16.88H9.22l.87,1.28.75-1.28H12L10.67,19l1.43,2.1Z"/><path class="cls-3" d="M15.78,17.27a1.91,1.91,0,0,1,.68,1.15H15.38a1,1,0,0,0-1-.63.92.92,0,0,0-.73.33,1.57,1.57,0,0,0,0,1.76.92.92,0,0,0,.73.33A1.07,1.07,0,0,0,15,20a1.05,1.05,0,0,0,.37-.46h1.08a1.94,1.94,0,0,1-.68,1.15,2.08,2.08,0,0,1-1.35.43,2.11,2.11,0,0,1-1.08-.27,1.91,1.91,0,0,1-.72-.77,2.54,2.54,0,0,1,0-2.24,1.91,1.91,0,0,1,.72-.77,2.11,2.11,0,0,1,1.08-.27A2.08,2.08,0,0,1,15.78,17.27Z"/><path class="cls-3" d="M18.06,17.7v.89H19.5v.77H18.06v.94h1.62v.82H17V16.88h2.64v.82Z"/><path class="cls-3" d="M21.29,20.34h1.36v.78H20.26V16.88h1Z"/></svg>