<svg id="Layer_1" data-name="Layer 1" xmlns="http://www.w3.org/2000/svg" viewBox="0 0 14.5 8.5"><defs><style>.cls-1{fill:#0e3a6c;fill-rule:evenodd;}.cls-2{fill:none;stroke:#0e3a6c;stroke-width:0.5px;}</style></defs><path class="cls-1" d="M6.47,5.52,1.58.48a.77.77,0,0,0-1.1,0,.81.81,0,0,0,0,1.14L6.7,8A.85.85,0,0,0,7,8.19a.78.78,0,0,0,.6,0A.85.85,0,0,0,7.8,8L14,1.62A.81.81,0,0,0,14,.48a.77.77,0,0,0-1.1,0L8,5.52S7.17,6.46,6.47,5.52Z"/><path class="cls-2" d="M6.47,5.52,1.58.48a.77.77,0,0,0-1.1,0,.81.81,0,0,0,0,1.14L6.7,8A.85.85,0,0,0,7,8.19a.78.78,0,0,0,.6,0A.85.85,0,0,0,7.8,8L14,1.62A.81.81,0,0,0,14,.48a.77.77,0,0,0-1.1,0L8,5.52s-.86.94-1.56,0"/></svg>