<svg id="Layer_1" data-name="Layer 1" xmlns="http://www.w3.org/2000/svg" xmlns:xlink="http://www.w3.org/1999/xlink" viewBox="0 0 27.74 38"><defs><style>.cls-1{fill:#fff;}.cls-1,.cls-3{fill-rule:evenodd;}.cls-2{mask:url(#mask);}.cls-3{fill:#0e3a6c;}</style><mask id="mask" x="0" y="0" width="27.74" height="38" maskUnits="userSpaceOnUse"><g id="mask21_0:561" data-name="mask21 0:561"><path class="cls-1" d="M0,0H27.74V38H0Z"/></g></mask></defs><g class="cls-2"><path class="cls-3" d="M25.61,36.1H2.13a.23.23,0,0,1-.23-.23V2.13a.23.23,0,0,1,.23-.23H18.05v6a2,2,0,0,0,2,2h5.83v26A.23.23,0,0,1,25.61,36.1ZM25,8H20A.06.06,0,0,1,20,7.92V2.63Zm2.37-.24L20.85.83A2.12,2.12,0,0,0,19.17,0h-17A2.13,2.13,0,0,0,0,2.13V35.87A2.13,2.13,0,0,0,2.13,38H25.61a2.13,2.13,0,0,0,2.13-2.13V9A2.14,2.14,0,0,0,27.35,7.74Z"/></g><path class="cls-3" d="M10.6,18.27c0-.38-.21-.56-.62-.56H9.46v1.1H10C10.39,18.81,10.6,18.63,10.6,18.27ZM9.46,19.63v1.49h-1V16.88h1.66a1.63,1.63,0,0,1,1.16.37,1.35,1.35,0,0,1,.39,1,1.38,1.38,0,0,1-.18.7,1.18,1.18,0,0,1-.52.49,2,2,0,0,1-.85.17Z"/><path class="cls-3" d="M14.59,19.89a1.2,1.2,0,0,0,.33-.9,1.18,1.18,0,0,0-.33-.89,1.3,1.3,0,0,0-.93-.32h-.49V20.2h.49A1.29,1.29,0,0,0,14.59,19.89Zm1.1.21a1.83,1.83,0,0,1-.76.75,2.48,2.48,0,0,1-1.18.27h-1.6V16.88h1.6a2.57,2.57,0,0,1,1.18.26,1.83,1.83,0,0,1,.76.75,2.4,2.4,0,0,1,0,2.21Z"/><path class="cls-3" d="M19.31,16.88v.82H17.57v.92h1.34v.79H17.57v1.71h-1V16.88Z"/></svg>