<svg id="Layer_1" data-name="Layer 1" xmlns="http://www.w3.org/2000/svg" xmlns:xlink="http://www.w3.org/1999/xlink" viewBox="0 0 27.74 38"><defs><style>.cls-1{fill:#fff;}.cls-1,.cls-3{fill-rule:evenodd;}.cls-2{mask:url(#mask);}.cls-3{fill:#0e3a6c;}</style><mask id="mask" x="0" y="0" width="27.74" height="38" maskUnits="userSpaceOnUse"><g id="mask11_0:561" data-name="mask11 0:561"><path class="cls-1" d="M0,0H27.74V38H0Z"/></g></mask></defs><g class="cls-2"><path class="cls-3" d="M25.61,36.1H2.13a.23.23,0,0,1-.23-.23V2.13a.23.23,0,0,1,.23-.23H18.05v6a2,2,0,0,0,2,2h5.83v26A.23.23,0,0,1,25.61,36.1ZM25,8H20A.06.06,0,0,1,20,7.92V2.63Zm2.37-.24L20.85.83A2.12,2.12,0,0,0,19.17,0h-17A2.13,2.13,0,0,0,0,2.13V35.87A2.13,2.13,0,0,0,2.13,38H25.61a2.13,2.13,0,0,0,2.13-2.13V9A2.14,2.14,0,0,0,27.35,7.74Z"/></g><path class="cls-3" d="M10.8,18.26c0-.37-.21-.55-.62-.55H9.66v1.1h.52C10.59,18.81,10.8,18.63,10.8,18.26ZM9.66,19.63v1.49h-1V16.88h1.66a1.63,1.63,0,0,1,1.16.37,1.34,1.34,0,0,1,.39,1,1.39,1.39,0,0,1-.18.71,1.18,1.18,0,0,1-.52.49,2,2,0,0,1-.85.17Z"/><path class="cls-3" d="M14.51,18.26c0-.37-.2-.55-.62-.55h-.52v1.1h.52C14.31,18.81,14.51,18.63,14.51,18.26Zm-1.14,1.37v1.49h-1V16.88H14a1.61,1.61,0,0,1,1.15.37,1.35,1.35,0,0,1,.4,1,1.39,1.39,0,0,1-.18.71,1.2,1.2,0,0,1-.53.49,1.93,1.93,0,0,1-.84.17Z"/><path class="cls-3" d="M19.11,16.88v.82H18v3.42h-1V17.7H15.78v-.82Z"/></svg>